<svg xmlns="http://www.w3.org/2000/svg" viewBox="0 0 24 24" width="24" height="24">
  <path d="M12 2c-4 0-8 .5-8 4v9.5C4 17.43 5.57 19 7.5 19L6 20.5v.5h2l2-2h4l2 2h2v-.5L16.5 19c1.93 0 3.5-1.57 3.5-3.5V6c0-3.5-3.58-4-8-4zm0 2c3.71 0 5.13.34 5.67 1H6.43C6.97 4.34 8.39 4 12 4zM6 7h12v7c0 1.1-.9 2-2 2h-1v-2H9v2H8c-1.1 0-2-.9-2-2V7zm2.5 1c-.83 0-1.5.67-1.5 1.5S7.67 11 8.5 11s1.5-.67 1.5-1.5S9.33 8 8.5 8zm7 0c-.83 0-1.5.67-1.5 1.5s.67 1.5 1.5 1.5 1.5-.67 1.5-1.5-.67-1.5-1.5-1.5z" fill="#007AFF"/>
</svg>