<svg xmlns="http://www.w3.org/2000/svg" viewBox="0 0 24 24" width="24" height="24">
  <path d="M17.66 11.2c-.23-.3-.51-.56-.77-.82-.67-.6-1.43-1.03-2.07-1.66C13.33 7.26 13 4.85 13.95 3c-.95.23-1.78.75-2.49 1.32-2.59 2.08-3.61 5.75-2.39 8.9.04.1.08.2.08.33 0 .22-.15.42-.35.5-.23.1-.47.04-.66-.12a.58.58 0 0 1-.14-.17c-1.13-1.43-1.31-3.48-.55-5.12C5.78 10 4.87 12.3 5 14.47c.06.5.12 1 .29 1.5.14.6.41 1.2.71 1.73 1.08 1.73 2.95 2.97 4.96 3.22 2.14.27 4.43-.12 6.07-1.6 1.83-1.66 2.47-4.32 1.53-6.6l-.13-.26c-.21-.46-.77-1.26-.77-1.26m-3.16 6.3c-.28.24-.74.5-1.1.6-1.12.4-2.24-.16-2.9-.82 1.19-.1 2.23-.46 2.96-1.06.5-.4.91-.92 1.15-1.5.13-.33.21-.67.24-1.03.08-.4-.03-.8-.2-1.15-.12-.25-.3-.47-.5-.66.09.06.18.13.26.2.36.3.66.65.88 1.05.2.38.32.78.33 1.2.01.42-.11.84-.35 1.2-.22.35-.53.63-.89.85-.23.16-.48.28-.75.38-.3.1-.6.14-.9.14h-.13z" fill="#007AFF"/>
</svg>